<?xml version="1.0" encoding="UTF-8"?>
<!DOCTYPE svg PUBLIC "-//W3C//DTD SVG 1.1//EN" "http://www.w3.org/Graphics/SVG/1.1/DTD/svg11.dtd">
<svg xmlns="http://www.w3.org/2000/svg" version="1.1" width="562px" height="490px" style="shape-rendering:geometricPrecision; text-rendering:geometricPrecision; image-rendering:optimizeQuality; fill-rule:evenodd; clip-rule:evenodd" xmlns:xlink="http://www.w3.org/1999/xlink">
<g><path style="opacity:1" fill="#fefefe" d="M -0.5,-0.5 C 186.833,-0.5 374.167,-0.5 561.5,-0.5C 561.5,162.833 561.5,326.167 561.5,489.5C 374.167,489.5 186.833,489.5 -0.5,489.5C -0.5,326.167 -0.5,162.833 -0.5,-0.5 Z"/></g>
<g><path style="opacity:1" fill="#e4f3c8" d="M 244.5,18.5 C 206.833,17.1667 169.167,17.1667 131.5,18.5C 132.263,17.7321 133.263,17.2321 134.5,17C 170.167,16.3333 205.833,16.3333 241.5,17C 242.737,17.2321 243.737,17.7321 244.5,18.5 Z"/></g>
<g><path style="opacity:1" fill="#b7df71" d="M 244.5,18.5 C 249.435,20.435 253.102,23.7684 255.5,28.5C 255.5,36.5 255.5,44.5 255.5,52.5C 250.833,52.5 246.167,52.5 241.5,52.5C 242.12,46.0738 241.453,40.0738 239.5,34.5C 205.669,33.3358 171.669,33.1691 137.5,34C 137,34.5 136.5,35 136,35.5C 135.501,41.1569 135.334,46.8236 135.5,52.5C 130.833,52.5 126.167,52.5 121.5,52.5C 121.666,58.8421 121.5,65.1754 121,71.5C 120.5,57.504 120.333,43.504 120.5,29.5C 121.768,25.2329 124.435,22.2329 128.5,20.5C 130.027,20.573 131.027,19.9063 131.5,18.5C 169.167,17.1667 206.833,17.1667 244.5,18.5 Z"/></g>
<g><path style="opacity:1" fill="#d7ecae" d="M 131.5,18.5 C 131.027,19.9063 130.027,20.573 128.5,20.5C 128.973,19.0937 129.973,18.427 131.5,18.5 Z"/></g>
<g><path style="opacity:1" fill="#b5df74" d="M 255.5,28.5 C 256.404,29.209 256.737,30.209 256.5,31.5C 256.171,45.0105 256.504,58.3438 257.5,71.5C 324.354,72.1802 391.354,72.8468 458.5,73.5C 460.099,73.2322 461.432,73.5655 462.5,74.5C 464.936,75.871 467.603,76.871 470.5,77.5C 474.007,79.754 477.673,81.754 481.5,83.5C 483.833,86.5 486.5,89.1667 489.5,91.5C 498.246,101.439 502.913,113.105 503.5,126.5C 503.5,143.5 503.5,160.5 503.5,177.5C 498.833,177.5 494.167,177.5 489.5,177.5C 489.813,181.042 489.479,184.375 488.5,187.5C 488.831,165.993 488.497,144.66 487.5,123.5C 485.683,115.532 482.016,108.532 476.5,102.5C 475.5,99.5 473.5,97.5 470.5,96.5C 470.027,95.0937 469.027,94.427 467.5,94.5C 466.508,94.6716 465.842,94.3382 465.5,93.5C 462.691,91.1034 459.358,89.7701 455.5,89.5C 455.167,89.5 454.833,89.5 454.5,89.5C 331.667,88.334 208.667,88.1673 85.5,89C 84.2625,89.2321 83.2625,89.7321 82.5,90.5C 80.302,90.1201 78.6354,90.7868 77.5,92.5C 76.5084,92.3284 75.8417,92.6618 75.5,93.5C 73.9731,93.427 72.9731,94.0937 72.5,95.5C 66.7815,98.885 62.4481,103.552 59.5,109.5C 58.0937,109.973 57.427,110.973 57.5,112.5C 54.9871,116.378 53.6538,120.711 53.5,125.5C 52.5033,142.659 52.17,159.992 52.5,177.5C 47.737,177.226 43.0704,177.559 38.5,178.5C 38.5,160.5 38.5,142.5 38.5,124.5C 38.5,121.833 38.5,119.167 38.5,116.5C 39.1667,114.833 39.8333,113.167 40.5,111.5C 42.5848,109.316 43.5848,106.649 43.5,103.5C 45.4077,102.514 46.4077,100.848 46.5,98.5C 46.7376,96.5956 47.7376,95.2623 49.5,94.5C 52.8333,91.8333 55.8333,88.8333 58.5,85.5C 61.0892,84.5806 63.0892,82.914 64.5,80.5C 64.8417,79.6618 65.5084,79.3284 66.5,79.5C 68.0269,79.573 69.0269,78.9063 69.5,77.5C 71.2821,76.2804 73.2821,75.6138 75.5,75.5C 78.855,75.3104 81.855,74.3104 84.5,72.5C 96.1359,71.5871 107.803,71.2537 119.5,71.5C 119.5,58.1667 119.5,44.8333 119.5,31.5C 119.328,30.5084 119.662,29.8417 120.5,29.5C 120.333,43.504 120.5,57.504 121,71.5C 121.5,65.1754 121.666,58.8421 121.5,52.5C 126.167,52.5 130.833,52.5 135.5,52.5C 135.334,58.1764 135.501,63.8431 136,69.5C 136.75,70.1258 137.584,70.6258 138.5,71C 171.833,71.6667 205.167,71.6667 238.5,71C 239.056,70.6174 239.389,70.1174 239.5,69.5C 240.819,57.9314 240.819,46.2647 239.5,34.5C 241.453,40.0738 242.12,46.0738 241.5,52.5C 246.167,52.5 250.833,52.5 255.5,52.5C 255.5,44.5 255.5,36.5 255.5,28.5 Z"/></g>
<g><path style="opacity:1" fill="#fefefe" d="M 239.5,34.5 C 240.819,46.2647 240.819,57.9314 239.5,69.5C 205.5,69.5 171.5,69.5 137.5,69.5C 137.179,57.9191 137.512,46.4191 138.5,35C 172.165,34.5 205.832,34.3333 239.5,34.5 Z"/></g>
<g><path style="opacity:1" fill="#e9f5d3" d="M 239.5,34.5 C 205.832,34.3333 172.165,34.5 138.5,35C 137.512,46.4191 137.179,57.9191 137.5,69.5C 171.5,69.5 205.5,69.5 239.5,69.5C 239.389,70.1174 239.056,70.6174 238.5,71C 205.167,71.6667 171.833,71.6667 138.5,71C 137.584,70.6258 136.75,70.1258 136,69.5C 135.501,63.8431 135.334,58.1764 135.5,52.5C 135.334,46.8236 135.501,41.1569 136,35.5C 136.5,35 137,34.5 137.5,34C 171.669,33.1691 205.669,33.3358 239.5,34.5 Z"/></g>
<g><path style="opacity:1" fill="#eff8e0" d="M 119.5,31.5 C 119.5,44.8333 119.5,58.1667 119.5,71.5C 107.803,71.2537 96.1359,71.5871 84.5,72.5C 84.9175,71.7784 85.5842,71.2784 86.5,71C 97.1615,70.5002 107.828,70.3335 118.5,70.5C 118.171,57.3226 118.505,44.3226 119.5,31.5 Z"/></g>
<g><path style="opacity:1" fill="#edf7da" d="M 256.5,31.5 C 257.495,44.3226 257.829,57.3226 257.5,70.5C 321.669,70.1675 385.669,70.5009 449.5,71.5C 385.5,71.5 321.5,71.5 257.5,71.5C 256.504,58.3438 256.171,45.0105 256.5,31.5 Z"/></g>
<g><path style="opacity:1" fill="#d0eaa5" d="M 257.5,71.5 C 321.5,71.5 385.5,71.5 449.5,71.5C 452.877,71.0679 455.877,71.7345 458.5,73.5C 391.354,72.8468 324.354,72.1802 257.5,71.5 Z"/></g>
<g><path style="opacity:1" fill="#d7edb1" d="M 84.5,72.5 C 81.855,74.3104 78.855,75.3104 75.5,75.5C 78.0836,73.5275 81.0836,72.5275 84.5,72.5 Z"/></g>
<g><path style="opacity:1" fill="#d9eeb6" d="M 462.5,74.5 C 465.716,74.3455 468.383,75.3455 470.5,77.5C 467.603,76.871 464.936,75.871 462.5,74.5 Z"/></g>
<g><path style="opacity:1" fill="#d6edb0" d="M 69.5,77.5 C 69.0269,78.9063 68.0269,79.573 66.5,79.5C 66.9731,78.0937 67.9731,77.427 69.5,77.5 Z"/></g>
<g><path style="opacity:1" fill="#cbe89c" d="M 64.5,80.5 C 63.0892,82.914 61.0892,84.5806 58.5,85.5C 59.9108,83.086 61.9108,81.4194 64.5,80.5 Z"/></g>
<g><path style="opacity:1" fill="#eaf6d7" d="M 481.5,83.5 C 485.167,85.1667 487.833,87.8333 489.5,91.5C 486.5,89.1667 483.833,86.5 481.5,83.5 Z"/></g>
<g><path style="opacity:1" fill="#ebf6db" d="M 454.5,89.5 C 330.478,89.174 206.478,89.5073 82.5,90.5C 83.2625,89.7321 84.2625,89.2321 85.5,89C 208.667,88.1673 331.667,88.334 454.5,89.5 Z"/></g>
<g><path style="opacity:1" fill="#cde9a0" d="M 58.5,85.5 C 55.8333,88.8333 52.8333,91.8333 49.5,94.5C 51.5,90.5 54.5,87.5 58.5,85.5 Z"/></g>
<g><path style="opacity:1" fill="#fefefe" d="M 454.5,89.5 C 454.833,89.5 455.167,89.5 455.5,89.5C 458.518,91.3999 461.851,92.7333 465.5,93.5C 465.842,94.3382 466.508,94.6716 467.5,94.5C 467.973,95.9063 468.973,96.573 470.5,96.5C 472.167,98.8333 474.167,100.833 476.5,102.5C 482.016,108.532 485.683,115.532 487.5,123.5C 487.667,193.167 487.5,262.834 487,332.5C 486.304,335.478 485.804,338.478 485.5,341.5C 482.94,347.62 479.607,353.287 475.5,358.5C 472.165,360.513 469.165,362.846 466.5,365.5C 462.172,366.166 458.172,367.666 454.5,370C 408.665,370.167 362.998,370.667 317.5,371.5C 316.094,371.973 315.427,372.973 315.5,374.5C 314.11,375.899 313.11,377.566 312.5,379.5C 311.094,379.973 310.427,380.973 310.5,382.5C 309.11,383.899 308.11,385.566 307.5,387.5C 306.094,387.973 305.427,388.973 305.5,390.5C 304.094,390.973 303.427,391.973 303.5,393.5C 302.662,393.842 302.328,394.508 302.5,395.5C 301.094,395.973 300.427,396.973 300.5,398.5C 299.094,398.973 298.427,399.973 298.5,401.5C 297.11,402.899 296.11,404.566 295.5,406.5C 294.094,406.973 293.427,407.973 293.5,409.5C 292.662,409.842 292.328,410.508 292.5,411.5C 285.67,421.154 279.337,431.154 273.5,441.5C 272.094,441.973 271.427,442.973 271.5,444.5C 270.624,444.631 269.957,444.298 269.5,443.5C 263.058,432.932 256.392,422.598 249.5,412.5C 241.48,398.302 232.813,384.469 223.5,371C 177.332,370.833 131.332,370.333 85.5,369.5C 82.6601,367.085 79.3267,365.752 75.5,365.5C 75.0269,364.094 74.0269,363.427 72.5,363.5C 71.5,362.833 70.5,362.167 69.5,361.5C 67.1667,358.5 64.5,355.833 61.5,353.5C 60.3129,350.125 58.6462,346.958 56.5,344C 55.6394,340.863 54.9728,337.697 54.5,334.5C 54.3333,263.499 54.5,192.499 55,121.5C 56.4301,118.647 57.2634,115.647 57.5,112.5C 58.9063,112.027 59.573,111.027 59.5,109.5C 62.4481,103.552 66.7815,98.885 72.5,95.5C 74.0269,95.573 75.0269,94.9063 75.5,93.5C 75.8417,92.6618 76.5084,92.3284 77.5,92.5C 79.403,92.2041 81.0697,91.5375 82.5,90.5C 206.478,89.5073 330.478,89.174 454.5,89.5 Z"/></g>
<g><path style="opacity:1" fill="#d7edb3" d="M 455.5,89.5 C 459.358,89.7701 462.691,91.1034 465.5,93.5C 461.851,92.7333 458.518,91.3999 455.5,89.5 Z"/></g>
<g><path style="opacity:1" fill="#d6edb1" d="M 82.5,90.5 C 81.0697,91.5375 79.403,92.2041 77.5,92.5C 78.6354,90.7868 80.302,90.1201 82.5,90.5 Z"/></g>
<g><path style="opacity:1" fill="#e0f2c5" d="M 75.5,93.5 C 75.0269,94.9063 74.0269,95.573 72.5,95.5C 72.9731,94.0937 73.9731,93.427 75.5,93.5 Z"/></g>
<g><path style="opacity:1" fill="#d1ebaa" d="M 467.5,94.5 C 469.027,94.427 470.027,95.0937 470.5,96.5C 468.973,96.573 467.973,95.9063 467.5,94.5 Z"/></g>
<g><path style="opacity:1" fill="#d4ecaf" d="M 470.5,96.5 C 473.5,97.5 475.5,99.5 476.5,102.5C 474.167,100.833 472.167,98.8333 470.5,96.5 Z"/></g>
<g><path style="opacity:1" fill="#cbe89d" d="M 46.5,98.5 C 46.4077,100.848 45.4077,102.514 43.5,103.5C 43.7497,101.326 44.7497,99.6594 46.5,98.5 Z"/></g>
<g><path style="opacity:1" fill="#c8e799" d="M 43.5,103.5 C 43.5848,106.649 42.5848,109.316 40.5,111.5C 40.4152,108.351 41.4152,105.684 43.5,103.5 Z"/></g>
<g><path style="opacity:1" fill="#ddf1c0" d="M 59.5,109.5 C 59.573,111.027 58.9063,112.027 57.5,112.5C 57.427,110.973 58.0937,109.973 59.5,109.5 Z"/></g>
<g><path style="opacity:1" fill="#e6f4cc" d="M 401.5,128.5 C 405.646,127.353 409.98,127.186 414.5,128C 416.319,128.74 417.652,129.907 418.5,131.5C 413.244,128.802 407.577,127.802 401.5,128.5 Z"/></g>
<g><path style="opacity:1" fill="#dbefb7" d="M 401.5,128.5 C 399.544,129.492 397.544,130.492 395.5,131.5C 396.687,129.025 398.687,128.025 401.5,128.5 Z"/></g>
<g><path style="opacity:1" fill="#f5fbef" d="M 504.5,126.5 C 505.665,195.332 505.832,264.332 505,333.5C 504.885,338.244 503.718,342.578 501.5,346.5C 502.115,341.474 502.949,336.474 504,331.5C 504.5,263.167 504.667,194.834 504.5,126.5 Z"/></g>
<g><path style="opacity:1" fill="#ebf6d6" d="M 282.5,132.5 C 274.316,132.174 266.316,132.508 258.5,133.5C 257.167,133.5 255.833,133.5 254.5,133.5C 255.263,132.732 256.263,132.232 257.5,132C 266.01,131.177 274.344,131.343 282.5,132.5 Z"/></g>
<g><path style="opacity:1" fill="#b3df74" d="M 401.5,128.5 C 407.577,127.802 413.244,128.802 418.5,131.5C 419.694,132.272 420.694,133.272 421.5,134.5C 422.957,136.628 423.957,138.962 424.5,141.5C 413.012,142.495 401.345,142.828 389.5,142.5C 389.517,140.435 389.85,138.435 390.5,136.5C 392.5,135.167 394.167,133.5 395.5,131.5C 397.544,130.492 399.544,129.492 401.5,128.5 Z"/></g>
<g><path style="opacity:1" fill="#b7df71" d="M 282.5,132.5 C 288.406,133.812 294.406,135.146 300.5,136.5C 302.936,137.871 305.603,138.871 308.5,139.5C 309.391,140.11 310.391,140.443 311.5,140.5C 311.973,141.906 312.973,142.573 314.5,142.5C 320.134,145.319 325.467,148.652 330.5,152.5C 310.678,153.833 290.511,154.5 270,154.5C 249.664,154.5 229.497,154.167 209.5,153.5C 212.275,150.395 215.608,148.062 219.5,146.5C 220.873,146.657 222.207,146.49 223.5,146C 230.529,141.65 237.863,138.15 245.5,135.5C 250.1,135.72 254.433,135.054 258.5,133.5C 266.316,132.508 274.316,132.174 282.5,132.5 Z"/></g>
<g><path style="opacity:1" fill="#c7e58e" d="M 254.5,133.5 C 255.833,133.5 257.167,133.5 258.5,133.5C 254.433,135.054 250.1,135.72 245.5,135.5C 248.273,134.343 251.273,133.676 254.5,133.5 Z"/></g>
<g><path style="opacity:1" fill="#d2ebaa" d="M 395.5,131.5 C 394.167,133.5 392.5,135.167 390.5,136.5C 391.167,133.833 392.833,132.167 395.5,131.5 Z"/></g>
<g><path style="opacity:1" fill="#cdeaa4" d="M 421.5,134.5 C 424.518,135.855 425.851,138.188 425.5,141.5C 425.167,141.5 424.833,141.5 424.5,141.5C 423.957,138.962 422.957,136.628 421.5,134.5 Z"/></g>
<g><path style="opacity:1" fill="#eaf6d6" d="M 300.5,136.5 C 303.716,136.345 306.383,137.345 308.5,139.5C 305.603,138.871 302.936,137.871 300.5,136.5 Z"/></g>
<g><path style="opacity:1" fill="#def0bc" d="M 311.5,140.5 C 313.027,140.427 314.027,141.094 314.5,142.5C 312.973,142.573 311.973,141.906 311.5,140.5 Z"/></g>
<g><path style="opacity:1" fill="#c7e690" d="M 245.5,135.5 C 237.863,138.15 230.529,141.65 223.5,146C 222.207,146.49 220.873,146.657 219.5,146.5C 227.269,140.904 235.935,137.238 245.5,135.5 Z"/></g>
<g><path style="opacity:1" fill="#aade79" d="M 390.5,136.5 C 389.85,138.435 389.517,140.435 389.5,142.5C 401.345,142.828 413.012,142.495 424.5,141.5C 424.833,141.5 425.167,141.5 425.5,141.5C 427.12,147.323 426.453,152.99 423.5,158.5C 412.828,158.667 402.161,158.5 391.5,158C 390.473,157.487 389.473,156.987 388.5,156.5C 387.746,151.537 387.413,146.537 387.5,141.5C 387.75,139.326 388.75,137.659 390.5,136.5 Z"/></g>
<g><path style="opacity:1" fill="#def1c8" d="M 57.5,112.5 C 57.2634,115.647 56.4301,118.647 55,121.5C 54.5,192.499 54.3333,263.499 54.5,334.5C 53.5008,265.002 53.1675,195.335 53.5,125.5C 53.6538,120.711 54.9871,116.378 57.5,112.5 Z"/></g>
<g><path style="opacity:1" fill="#d0edb4" d="M 387.5,141.5 C 387.413,146.537 387.746,151.537 388.5,156.5C 387.009,153.814 386.343,150.814 386.5,147.5C 386.505,145.304 386.838,143.304 387.5,141.5 Z"/></g>
<g><path style="opacity:1" fill="#d8f0bf" d="M 38.5,116.5 C 38.5,119.167 38.5,121.833 38.5,124.5C 37.5008,194.998 37.1675,265.665 37.5,336.5C 36.3345,264.668 36.1678,192.668 37,120.5C 37.21,118.942 37.71,117.609 38.5,116.5 Z"/></g>
<g><path style="opacity:1" fill="#e8f5d2" d="M 331.5,152.5 C 334.089,153.419 336.089,155.086 337.5,157.5C 334.911,156.581 332.911,154.914 331.5,152.5 Z"/></g>
<g><path style="opacity:1" fill="#b3df74" d="M 330.5,152.5 C 330.833,152.5 331.167,152.5 331.5,152.5C 332.911,154.914 334.911,156.581 337.5,157.5C 346.063,165.721 353.063,175.054 358.5,185.5C 358.427,187.027 359.094,188.027 360.5,188.5C 361.167,190.5 361.833,192.5 362.5,194.5C 362.796,196.403 363.463,198.07 364.5,199.5C 364.723,203.162 365.723,206.495 367.5,209.5C 368.49,216.797 369.156,224.13 369.5,231.5C 361.833,231.5 354.167,231.5 346.5,231.5C 346.813,227.958 346.479,224.625 345.5,221.5C 344.833,220.167 344.167,218.833 343.5,217.5C 342.357,214.316 341.691,210.983 341.5,207.5C 341.245,205.033 340.245,203.033 338.5,201.5C 336.165,195.486 332.831,190.152 328.5,185.5C 327.581,182.911 325.914,180.911 323.5,179.5C 319.792,175.79 315.792,172.457 311.5,169.5C 311.027,168.094 310.027,167.427 308.5,167.5C 308.027,166.094 307.027,165.427 305.5,165.5C 304.167,165.167 302.833,164.833 301.5,164.5C 301.027,163.094 300.027,162.427 298.5,162.5C 297.167,162.167 295.833,161.833 294.5,161.5C 291.285,159.144 287.619,157.644 283.5,157C 276.654,156.179 269.987,156.346 263.5,157.5C 259.542,157.251 255.876,157.918 252.5,159.5C 245.981,160.67 239.981,163.003 234.5,166.5C 229.707,168.551 225.707,171.551 222.5,175.5C 218.5,177.5 215.5,180.5 213.5,184.5C 207.976,190.208 203.976,196.875 201.5,204.5C 199.528,207.084 198.528,210.084 198.5,213.5C 196.989,216.544 196.322,219.878 196.5,223.5C 195.662,223.842 195.328,224.508 195.5,225.5C 194.539,227.265 194.205,229.265 194.5,231.5C 187.167,231.5 179.833,231.5 172.5,231.5C 172.5,225.5 172.5,219.5 172.5,213.5C 177.237,188.669 189.571,168.669 209.5,153.5C 229.497,154.167 249.664,154.5 270,154.5C 290.511,154.5 310.678,153.833 330.5,152.5 Z"/></g>
<g><path style="opacity:1" fill="#cbe89b" d="M 263.5,157.5 C 269.987,156.346 276.654,156.179 283.5,157C 287.619,157.644 291.285,159.144 294.5,161.5C 289.688,159.596 284.688,158.596 279.5,158.5C 274.36,157.512 269.026,157.179 263.5,157.5 Z"/></g>
<g><path style="opacity:1" fill="#eaf6d7" d="M 263.5,157.5 C 269.026,157.179 274.36,157.512 279.5,158.5C 270.482,158.448 261.482,158.782 252.5,159.5C 255.876,157.918 259.542,157.251 263.5,157.5 Z"/></g>
<g><path style="opacity:1" fill="#fefefd" d="M 279.5,158.5 C 284.688,158.596 289.688,159.596 294.5,161.5C 295.833,161.833 297.167,162.167 298.5,162.5C 298.973,163.906 299.973,164.573 301.5,164.5C 302.833,164.833 304.167,165.167 305.5,165.5C 305.973,166.906 306.973,167.573 308.5,167.5C 308.973,168.906 309.973,169.573 311.5,169.5C 315.792,172.457 319.792,175.79 323.5,179.5C 324.419,182.089 326.086,184.089 328.5,185.5C 332.831,190.152 336.165,195.486 338.5,201.5C 338.755,203.967 339.755,205.967 341.5,207.5C 341.691,210.983 342.357,214.316 343.5,217.5C 344.166,225.483 344.499,233.483 344.5,241.5C 344.5,241.833 344.5,242.167 344.5,242.5C 342.882,246.575 341.882,250.908 341.5,255.5C 340.833,255.5 340.5,255.833 340.5,256.5C 339.463,257.93 338.796,259.597 338.5,261.5C 334.42,269.329 330.087,276.996 325.5,284.5C 324.094,284.973 323.427,285.973 323.5,287.5C 321,290.494 319,293.827 317.5,297.5C 307.05,312.295 297.384,327.628 288.5,343.5C 285.004,347.819 282.004,352.485 279.5,357.5C 278.094,357.973 277.427,358.973 277.5,360.5C 275.442,362.927 273.609,365.593 272,368.5C 271.282,369.451 270.449,369.617 269.5,369C 264.601,361.349 259.601,353.849 254.5,346.5C 244.888,330.229 234.888,314.229 224.5,298.5C 218.928,289.027 213.095,279.693 207,270.5C 202.544,262.627 199.377,254.294 197.5,245.5C 197.5,244.167 197.5,242.833 197.5,241.5C 197.434,232.148 197.768,222.815 198.5,213.5C 200.31,210.855 201.31,207.855 201.5,204.5C 203.976,196.875 207.976,190.208 213.5,184.5C 216.833,181.833 219.833,178.833 222.5,175.5C 225.707,171.551 229.707,168.551 234.5,166.5C 240.764,164.696 246.764,162.362 252.5,159.5C 261.482,158.782 270.482,158.448 279.5,158.5 Z"/></g>
<g><path style="opacity:1" fill="#a5df81" d="M 388.5,156.5 C 389.473,156.987 390.473,157.487 391.5,158C 402.161,158.5 412.828,158.667 423.5,158.5C 423.5,158.833 423.5,159.167 423.5,159.5C 421.5,160.833 419.833,162.5 418.5,164.5C 405.842,170.742 395.842,168.076 388.5,156.5 Z"/></g>
<g><path style="opacity:1" fill="#e9f5d4" d="M 252.5,159.5 C 246.764,162.362 240.764,164.696 234.5,166.5C 239.981,163.003 245.981,160.67 252.5,159.5 Z"/></g>
<g><path style="opacity:1" fill="#def3d1" d="M 423.5,159.5 C 422.833,162.167 421.167,163.833 418.5,164.5C 419.833,162.5 421.5,160.833 423.5,159.5 Z"/></g>
<g><path style="opacity:1" fill="#e0f1c3" d="M 298.5,162.5 C 300.027,162.427 301.027,163.094 301.5,164.5C 299.973,164.573 298.973,163.906 298.5,162.5 Z"/></g>
<g><path style="opacity:1" fill="#d4ebab" d="M 305.5,165.5 C 307.027,165.427 308.027,166.094 308.5,167.5C 306.973,167.573 305.973,166.906 305.5,165.5 Z"/></g>
<g><path style="opacity:1" fill="#d9eeb6" d="M 308.5,167.5 C 310.027,167.427 311.027,168.094 311.5,169.5C 309.973,169.573 308.973,168.906 308.5,167.5 Z"/></g>
<g><path style="opacity:1" fill="#e6f4cf" d="M 323.5,179.5 C 325.914,180.911 327.581,182.911 328.5,185.5C 326.086,184.089 324.419,182.089 323.5,179.5 Z"/></g>
<g><path style="opacity:1" fill="#e6f4cf" d="M 222.5,175.5 C 219.833,178.833 216.833,181.833 213.5,184.5C 215.5,180.5 218.5,177.5 222.5,175.5 Z"/></g>
<g><path style="opacity:1" fill="#dbf0bc" d="M 358.5,185.5 C 359.906,185.973 360.573,186.973 360.5,188.5C 359.094,188.027 358.427,187.027 358.5,185.5 Z"/></g>
<g><path style="opacity:1" fill="#abde77" d="M 503.5,177.5 C 503.5,214.833 503.5,252.167 503.5,289.5C 498.833,289.5 494.167,289.5 489.5,289.5C 489.819,294.363 489.486,299.03 488.5,303.5C 488.5,264.833 488.5,226.167 488.5,187.5C 489.479,184.375 489.813,181.042 489.5,177.5C 494.167,177.5 498.833,177.5 503.5,177.5 Z"/></g>
<g><path style="opacity:1" fill="#eef7dd" d="M 275.5,196.5 C 270.797,196.437 266.13,196.771 261.5,197.5C 263.807,195.953 266.473,195.287 269.5,195.5C 271.696,195.505 273.696,195.838 275.5,196.5 Z"/></g>
<g><path style="opacity:1" fill="#d9efb9" d="M 362.5,194.5 C 364.213,195.635 364.88,197.302 364.5,199.5C 363.463,198.07 362.796,196.403 362.5,194.5 Z"/></g>
<g><path style="opacity:1" fill="#cde99d" d="M 255.5,199.5 C 254.415,201.587 252.749,202.92 250.5,203.5C 251.585,201.413 253.251,200.08 255.5,199.5 Z"/></g>
<g><path style="opacity:1" fill="#b3df74" d="M 275.5,196.5 C 281.95,198.05 287.95,200.883 293.5,205C 294.71,206.039 295.71,207.206 296.5,208.5C 297.08,210.749 298.413,212.415 300.5,213.5C 301.674,214.514 302.34,215.847 302.5,217.5C 302.5,218.5 302.5,219.5 302.5,220.5C 281.5,220.5 260.5,220.5 239.5,220.5C 239.5,219.167 239.5,217.833 239.5,216.5C 241.378,210.624 245.045,206.291 250.5,203.5C 252.749,202.92 254.415,201.587 255.5,199.5C 257.5,198.833 259.5,198.167 261.5,197.5C 266.13,196.771 270.797,196.437 275.5,196.5 Z"/></g>
<g><path style="opacity:1" fill="#ceeaa6" d="M 364.5,199.5 C 366.277,202.505 367.277,205.838 367.5,209.5C 365.723,206.495 364.723,203.162 364.5,199.5 Z"/></g>
<g><path style="opacity:1" fill="#d2ecae" d="M 338.5,201.5 C 340.245,203.033 341.245,205.033 341.5,207.5C 339.755,205.967 338.755,203.967 338.5,201.5 Z"/></g>
<g><path style="opacity:1" fill="#e9f6d7" d="M 201.5,204.5 C 201.31,207.855 200.31,210.855 198.5,213.5C 198.528,210.084 199.528,207.084 201.5,204.5 Z"/></g>
<g><path style="opacity:1" fill="#cae89d" d="M 296.5,208.5 C 298.587,209.585 299.92,211.251 300.5,213.5C 298.413,212.415 297.08,210.749 296.5,208.5 Z"/></g>
<g><path style="opacity:1" fill="#f0f9e4" d="M 198.5,213.5 C 197.768,222.815 197.434,232.148 197.5,241.5C 196.51,235.69 196.177,229.69 196.5,223.5C 196.322,219.878 196.989,216.544 198.5,213.5 Z"/></g>
<g><path style="opacity:1" fill="#abde77" d="M 239.5,216.5 C 239.5,217.833 239.5,219.167 239.5,220.5C 260.5,220.5 281.5,220.5 302.5,220.5C 304.63,226.164 304.963,231.83 303.5,237.5C 281.425,237.178 259.425,237.511 237.5,238.5C 236.348,233.015 236.182,227.349 237,221.5C 237.757,219.685 238.59,218.019 239.5,216.5 Z"/></g>
<g><path style="opacity:1" fill="#d7efba" d="M 343.5,217.5 C 344.167,218.833 344.833,220.167 345.5,221.5C 345.824,228.354 345.491,235.021 344.5,241.5C 344.499,233.483 344.166,225.483 343.5,217.5 Z"/></g>
<g><path style="opacity:1" fill="#c9eaa7" d="M 302.5,217.5 C 304.889,221.57 305.889,226.07 305.5,231C 305.333,233.5 305.167,236 305,238.5C 304.722,239.416 304.222,240.082 303.5,240.5C 303.5,239.5 303.5,238.5 303.5,237.5C 304.963,231.83 304.63,226.164 302.5,220.5C 302.5,219.5 302.5,218.5 302.5,217.5 Z"/></g>
<g><path style="opacity:1" fill="#d7efb9" d="M 367.5,209.5 C 368.856,212.577 369.689,215.91 370,219.5C 370.822,227.012 370.655,234.345 369.5,241.5C 369.5,238.167 369.5,234.833 369.5,231.5C 369.156,224.13 368.49,216.797 367.5,209.5 Z"/></g>
<g><path style="opacity:1" fill="#addf76" d="M 345.5,221.5 C 346.479,224.625 346.813,227.958 346.5,231.5C 354.167,231.5 361.833,231.5 369.5,231.5C 369.5,234.833 369.5,238.167 369.5,241.5C 367.678,248.282 366.345,255.282 365.5,262.5C 364.833,262.5 364.5,262.833 364.5,263.5C 356.5,263.5 348.5,263.5 340.5,263.5C 340.5,262.5 340.5,261.5 340.5,260.5C 340.5,259.167 340.5,257.833 340.5,256.5C 340.5,255.833 340.833,255.5 341.5,255.5C 344.161,251.726 345.161,247.393 344.5,242.5C 344.5,242.167 344.5,241.833 344.5,241.5C 345.491,235.021 345.824,228.354 345.5,221.5 Z"/></g>
<g><path style="opacity:1" fill="#bae490" d="M 487.5,123.5 C 488.497,144.66 488.831,165.993 488.5,187.5C 488.5,226.167 488.5,264.833 488.5,303.5C 488.843,315.876 488.343,328.209 487,340.5C 486.617,341.056 486.117,341.389 485.5,341.5C 485.804,338.478 486.304,335.478 487,332.5C 487.5,262.834 487.667,193.167 487.5,123.5 Z"/></g>
<g><path style="opacity:1" fill="#a7de7b" d="M 303.5,237.5 C 303.5,238.5 303.5,239.5 303.5,240.5C 303.308,244.102 301.974,247.102 299.5,249.5C 280.167,249.5 260.833,249.5 241.5,249.5C 239.01,246.374 237.677,242.708 237.5,238.5C 259.425,237.511 281.425,237.178 303.5,237.5 Z"/></g>
<g><path style="opacity:1" fill="#bfe591" d="M 196.5,223.5 C 196.177,229.69 196.51,235.69 197.5,241.5C 197.5,242.833 197.5,244.167 197.5,245.5C 195.541,239.25 194.874,232.584 195.5,225.5C 195.328,224.508 195.662,223.842 196.5,223.5 Z"/></g>
<g><path style="opacity:1" fill="#daf0c0" d="M 369.5,241.5 C 369.547,248.904 368.214,255.904 365.5,262.5C 366.345,255.282 367.678,248.282 369.5,241.5 Z"/></g>
<g><path style="opacity:1" fill="#c4e79b" d="M 344.5,242.5 C 345.161,247.393 344.161,251.726 341.5,255.5C 341.882,250.908 342.882,246.575 344.5,242.5 Z"/></g>
<g><path style="opacity:1" fill="#a3de80" d="M 241.5,249.5 C 260.833,249.5 280.167,249.5 299.5,249.5C 296.5,254.5 292.5,258.5 287.5,261.5C 285.973,261.427 284.973,262.094 284.5,263.5C 282.167,264.167 279.833,264.833 277.5,265.5C 273.154,265.666 268.821,265.499 264.5,265C 260.991,263.241 257.325,262.074 253.5,261.5C 248.183,258.911 244.183,254.911 241.5,249.5 Z"/></g>
<g><path style="opacity:1" fill="#d2edb4" d="M 340.5,256.5 C 340.5,257.833 340.5,259.167 340.5,260.5C 339.833,260.833 339.167,261.167 338.5,261.5C 338.796,259.597 339.463,257.93 340.5,256.5 Z"/></g>
<g><path style="opacity:1" fill="#c2eaae" d="M 253.5,261.5 C 257.325,262.074 260.991,263.241 264.5,265C 268.821,265.499 273.154,265.666 277.5,265.5C 268.955,267.649 260.955,266.315 253.5,261.5 Z"/></g>
<g><path style="opacity:1" fill="#d7f1c9" d="M 287.5,261.5 C 287.027,262.906 286.027,263.573 284.5,263.5C 284.973,262.094 285.973,261.427 287.5,261.5 Z"/></g>
<g><path style="opacity:1" fill="#abde7a" d="M 340.5,260.5 C 340.5,261.5 340.5,262.5 340.5,263.5C 348.5,263.5 356.5,263.5 364.5,263.5C 363.962,265.117 363.629,266.784 363.5,268.5C 362.094,268.973 361.427,269.973 361.5,271.5C 360.833,273.167 360.167,274.833 359.5,276.5C 357.755,278.033 356.755,280.033 356.5,282.5C 354.75,283.659 353.75,285.326 353.5,287.5C 352.662,287.842 352.328,288.508 352.5,289.5C 350.412,291.336 349.079,293.669 348.5,296.5C 346.937,297.945 345.604,299.611 344.5,301.5C 344.167,301.5 343.833,301.5 343.5,301.5C 334.475,301.832 325.475,301.498 316.5,300.5C 317.127,299.583 317.461,298.583 317.5,297.5C 319,293.827 321,290.494 323.5,287.5C 324.906,287.027 325.573,286.027 325.5,284.5C 330.087,276.996 334.42,269.329 338.5,261.5C 339.167,261.167 339.833,260.833 340.5,260.5 Z"/></g>
<g><path style="opacity:1" fill="#acde79" d="M 172.5,213.5 C 172.5,219.5 172.5,225.5 172.5,231.5C 179.833,231.5 187.167,231.5 194.5,231.5C 194.205,229.265 194.539,227.265 195.5,225.5C 194.874,232.584 195.541,239.25 197.5,245.5C 199.377,254.294 202.544,262.627 207,270.5C 213.095,279.693 218.928,289.027 224.5,298.5C 224.5,299.5 224.5,300.5 224.5,301.5C 215.915,301.183 207.415,301.517 199,302.5C 198.583,301.244 197.75,300.577 196.5,300.5C 191.222,292.049 185.722,283.716 180,275.5C 178.069,267.707 175.735,260.04 173,252.5C 171.331,239.362 171.164,226.362 172.5,213.5 Z"/></g>
<g><path style="opacity:1" fill="#d6eebc" d="M 363.5,268.5 C 363.573,270.027 362.906,271.027 361.5,271.5C 361.427,269.973 362.094,268.973 363.5,268.5 Z"/></g>
<g><path style="opacity:1" fill="#ddf2c8" d="M 359.5,276.5 C 359.245,278.967 358.245,280.967 356.5,282.5C 356.755,280.033 357.755,278.033 359.5,276.5 Z"/></g>
<g><path style="opacity:1" fill="#ceebb1" d="M 325.5,284.5 C 325.573,286.027 324.906,287.027 323.5,287.5C 323.427,285.973 324.094,284.973 325.5,284.5 Z"/></g>
<g><path style="opacity:1" fill="#e6f6d6" d="M 356.5,282.5 C 356.408,284.848 355.408,286.514 353.5,287.5C 353.75,285.326 354.75,283.659 356.5,282.5 Z"/></g>
<g><path style="opacity:1" fill="#e6f5d8" d="M 352.5,289.5 C 352.264,292.621 350.931,294.954 348.5,296.5C 349.079,293.669 350.412,291.336 352.5,289.5 Z"/></g>
<g><path style="opacity:1" fill="#e4f4d3" d="M 348.5,296.5 C 348.33,299.204 346.997,300.871 344.5,301.5C 345.604,299.611 346.937,297.945 348.5,296.5 Z"/></g>
<g><path style="opacity:1" fill="#a8de7d" d="M 224.5,298.5 C 234.888,314.229 244.888,330.229 254.5,346.5C 254.539,347.583 254.873,348.583 255.5,349.5C 246.833,350.833 238.167,350.833 229.5,349.5C 228.995,348.081 227.995,347.415 226.5,347.5C 216.264,332.039 206.264,316.372 196.5,300.5C 197.75,300.577 198.583,301.244 199,302.5C 207.415,301.517 215.915,301.183 224.5,301.5C 224.5,300.5 224.5,299.5 224.5,298.5 Z"/></g>
<g><path style="opacity:1" fill="#a8de7d" d="M 317.5,297.5 C 317.461,298.583 317.127,299.583 316.5,300.5C 325.475,301.498 334.475,301.832 343.5,301.5C 342.89,302.391 342.557,303.391 342.5,304.5C 341.094,304.973 340.427,305.973 340.5,307.5C 339.662,307.842 339.328,308.508 339.5,309.5C 338.094,309.973 337.427,310.973 337.5,312.5C 336.094,312.973 335.427,313.973 335.5,315.5C 334.11,316.899 333.11,318.566 332.5,320.5C 331.094,320.973 330.427,321.973 330.5,323.5C 329.11,324.899 328.11,326.566 327.5,328.5C 326.094,328.973 325.427,329.973 325.5,331.5C 324.094,331.973 323.427,332.973 323.5,334.5C 322.662,334.842 322.328,335.508 322.5,336.5C 321.094,336.973 320.427,337.973 320.5,339.5C 319.094,339.973 318.427,340.973 318.5,342.5C 316.5,345.167 314.5,347.833 312.5,350.5C 303.808,350.831 295.141,350.498 286.5,349.5C 288.086,347.827 288.753,345.827 288.5,343.5C 297.384,327.628 307.05,312.295 317.5,297.5 Z"/></g>
<g><path style="opacity:1" fill="#dbf1c8" d="M 343.5,301.5 C 343.833,301.5 344.167,301.5 344.5,301.5C 344.573,303.027 343.906,304.027 342.5,304.5C 342.557,303.391 342.89,302.391 343.5,301.5 Z"/></g>
<g><path style="opacity:1" fill="#d7f0c1" d="M 342.5,304.5 C 342.573,306.027 341.906,307.027 340.5,307.5C 340.427,305.973 341.094,304.973 342.5,304.5 Z"/></g>
<g><path style="opacity:1" fill="#dbf2c8" d="M 339.5,309.5 C 339.573,311.027 338.906,312.027 337.5,312.5C 337.427,310.973 338.094,309.973 339.5,309.5 Z"/></g>
<g><path style="opacity:1" fill="#d8f0c3" d="M 337.5,312.5 C 337.573,314.027 336.906,315.027 335.5,315.5C 335.427,313.973 336.094,312.973 337.5,312.5 Z"/></g>
<g><path style="opacity:1" fill="#d9f0c5" d="M 332.5,320.5 C 332.573,322.027 331.906,323.027 330.5,323.5C 330.427,321.973 331.094,320.973 332.5,320.5 Z"/></g>
<g><path style="opacity:1" fill="#daf1c6" d="M 327.5,328.5 C 327.573,330.027 326.906,331.027 325.5,331.5C 325.427,329.973 326.094,328.973 327.5,328.5 Z"/></g>
<g><path style="opacity:1" fill="#d5efc1" d="M 325.5,331.5 C 325.573,333.027 324.906,334.027 323.5,334.5C 323.427,332.973 324.094,331.973 325.5,331.5 Z"/></g>
<g><path style="opacity:1" fill="#daf1c8" d="M 322.5,336.5 C 322.573,338.027 321.906,339.027 320.5,339.5C 320.427,337.973 321.094,336.973 322.5,336.5 Z"/></g>
<g><path style="opacity:1" fill="#d6f0c2" d="M 320.5,339.5 C 320.573,341.027 319.906,342.027 318.5,342.5C 318.427,340.973 319.094,339.973 320.5,339.5 Z"/></g>
<g><path style="opacity:1" fill="#cfedb8" d="M 39.5,346.5 C 41.2451,348.033 42.2451,350.033 42.5,352.5C 40.7549,350.967 39.7549,348.967 39.5,346.5 Z"/></g>
<g><path style="opacity:1" fill="#c1e8a4" d="M 61.5,353.5 C 64.5,355.833 67.1667,358.5 69.5,361.5C 65.8333,359.833 63.1667,357.167 61.5,353.5 Z"/></g>
<g><path style="opacity:1" fill="#d8f1c7" d="M 310.5,355.5 C 310.573,357.027 309.906,358.027 308.5,358.5C 308.427,356.973 309.094,355.973 310.5,355.5 Z"/></g>
<g><path style="opacity:1" fill="#bbe59b" d="M 475.5,358.5 C 473.507,362.18 470.507,364.513 466.5,365.5C 469.165,362.846 472.165,360.513 475.5,358.5 Z"/></g>
<g><path style="opacity:1" fill="#d1eebc" d="M 72.5,363.5 C 74.0269,363.427 75.0269,364.094 75.5,365.5C 73.9731,365.573 72.9731,364.906 72.5,363.5 Z"/></g>
<g><path style="opacity:1" fill="#daf2c9" d="M 75.5,365.5 C 79.3267,365.752 82.6601,367.085 85.5,369.5C 81.6733,369.248 78.3399,367.915 75.5,365.5 Z"/></g>
<g><path style="opacity:1" fill="#d9f1c8" d="M 305.5,363.5 C 305.573,365.027 304.906,366.027 303.5,366.5C 303.427,364.973 304.094,363.973 305.5,363.5 Z"/></g>
<g><path style="opacity:1" fill="#a7de7f" d="M 38.5,124.5 C 38.5,142.5 38.5,160.5 38.5,178.5C 38.1478,224.178 38.4811,261.178 39.5,289.5C 43.8333,289.5 48.1667,289.5 52.5,289.5C 52.5,252.167 52.5,214.833 52.5,177.5C 52.17,159.992 52.5033,142.659 53.5,125.5C 53.1675,195.335 53.5008,265.002 54.5,334.5C 54.9728,337.697 55.6394,340.863 56.5,344C 58.6462,346.958 60.3129,350.125 61.5,353.5C 63.1667,357.167 65.8333,359.833 69.5,361.5C 70.5,362.167 71.5,362.833 72.5,363.5C 72.9731,364.906 73.9731,365.573 75.5,365.5C 78.3399,367.915 81.6733,369.248 85.5,369.5C 131.332,370.333 177.332,370.833 223.5,371C 232.813,384.469 241.48,398.302 249.5,412.5C 244.18,414.211 238.514,415.211 232.5,415.5C 226.14,406.458 220.14,397.125 214.5,387.5C 169.99,386.791 125.323,386.124 80.5,385.5C 78.8984,383.926 76.8984,383.259 74.5,383.5C 71.7925,382.165 69.1258,380.831 66.5,379.5C 66.0269,378.094 65.0269,377.427 63.5,377.5C 61.5956,377.262 60.2623,376.262 59.5,374.5C 58.0892,372.086 56.0892,370.419 53.5,369.5C 49.0859,364.344 45.4193,358.677 42.5,352.5C 42.2451,350.033 41.2451,348.033 39.5,346.5C 38.5178,343.237 37.8511,339.903 37.5,336.5C 37.1675,265.665 37.5008,194.998 38.5,124.5 Z"/></g>
<g><path style="opacity:1" fill="#abde77" d="M 52.5,177.5 C 52.5,214.833 52.5,252.167 52.5,289.5C 48.1667,289.5 43.8333,289.5 39.5,289.5C 38.4811,261.178 38.1478,224.178 38.5,178.5C 43.0704,177.559 47.737,177.226 52.5,177.5 Z"/></g>
<g><path style="opacity:1" fill="#a7df81" d="M 503.5,126.5 C 503.833,126.5 504.167,126.5 504.5,126.5C 504.667,194.834 504.5,263.167 504,331.5C 502.949,336.474 502.115,341.474 501.5,346.5C 496.631,359.228 488.631,369.561 477.5,377.5C 475.973,377.427 474.973,378.094 474.5,379.5C 472.326,379.75 470.659,380.75 469.5,382.5C 467.102,382.259 465.102,382.926 463.5,384.5C 460.171,384.215 457.171,384.882 454.5,386.5C 453.833,386.5 453.167,386.5 452.5,386.5C 410.153,385.839 368.153,386.505 326.5,388.5C 325.11,389.899 324.11,391.566 323.5,393.5C 322.094,393.973 321.427,394.973 321.5,396.5C 320.11,397.899 319.11,399.566 318.5,401.5C 317.094,401.973 316.427,402.973 316.5,404.5C 314.75,405.659 313.75,407.326 313.5,409.5C 312.094,409.973 311.427,410.973 311.5,412.5C 310.728,413.694 309.728,414.694 308.5,415.5C 303.26,414.551 297.927,414.218 292.5,414.5C 292.5,413.5 292.5,412.5 292.5,411.5C 292.328,410.508 292.662,409.842 293.5,409.5C 294.906,409.027 295.573,408.027 295.5,406.5C 296.11,404.566 297.11,402.899 298.5,401.5C 299.906,401.027 300.573,400.027 300.5,398.5C 301.906,398.027 302.573,397.027 302.5,395.5C 302.328,394.508 302.662,393.842 303.5,393.5C 304.906,393.027 305.573,392.027 305.5,390.5C 306.906,390.027 307.573,389.027 307.5,387.5C 308.11,385.566 309.11,383.899 310.5,382.5C 311.906,382.027 312.573,381.027 312.5,379.5C 313.11,377.566 314.11,375.899 315.5,374.5C 316.906,374.027 317.573,373.027 317.5,371.5C 362.998,370.667 408.665,370.167 454.5,370C 458.172,367.666 462.172,366.166 466.5,365.5C 470.507,364.513 473.507,362.18 475.5,358.5C 479.607,353.287 482.94,347.62 485.5,341.5C 486.117,341.389 486.617,341.056 487,340.5C 488.343,328.209 488.843,315.876 488.5,303.5C 489.486,299.03 489.819,294.363 489.5,289.5C 494.167,289.5 498.833,289.5 503.5,289.5C 503.5,252.167 503.5,214.833 503.5,177.5C 503.5,160.5 503.5,143.5 503.5,126.5 Z"/></g>
<g><path style="opacity:1" fill="#d4efc2" d="M 303.5,366.5 C 303.573,368.027 302.906,369.027 301.5,369.5C 301.427,367.973 302.094,366.973 303.5,366.5 Z"/></g>
<g><path style="opacity:1" fill="#c8eaaf" d="M 53.5,369.5 C 56.0892,370.419 58.0892,372.086 59.5,374.5C 56.9108,373.581 54.9108,371.914 53.5,369.5 Z"/></g>
<g><path style="opacity:1" fill="#cfedba" d="M 317.5,371.5 C 317.573,373.027 316.906,374.027 315.5,374.5C 315.427,372.973 316.094,371.973 317.5,371.5 Z"/></g>
<g><path style="opacity:1" fill="#d5f0c4" d="M 298.5,374.5 C 298.573,376.027 297.906,377.027 296.5,377.5C 296.427,375.973 297.094,374.973 298.5,374.5 Z"/></g>
<g><path style="opacity:1" fill="#cfeeba" d="M 63.5,377.5 C 65.0269,377.427 66.0269,378.094 66.5,379.5C 64.9731,379.573 63.9731,378.906 63.5,377.5 Z"/></g>
<g><path style="opacity:1" fill="#a3de80" d="M 288.5,343.5 C 288.753,345.827 288.086,347.827 286.5,349.5C 295.141,350.498 303.808,350.831 312.5,350.5C 311.833,352.167 311.167,353.833 310.5,355.5C 309.094,355.973 308.427,356.973 308.5,358.5C 307.11,359.899 306.11,361.566 305.5,363.5C 304.094,363.973 303.427,364.973 303.5,366.5C 302.094,366.973 301.427,367.973 301.5,369.5C 300.11,370.899 299.11,372.566 298.5,374.5C 297.094,374.973 296.427,375.973 296.5,377.5C 295.11,378.899 294.11,380.566 293.5,382.5C 292.094,382.973 291.427,383.973 291.5,385.5C 290.11,386.899 289.11,388.566 288.5,390.5C 287.094,390.973 286.427,391.973 286.5,393.5C 285.11,394.899 284.11,396.566 283.5,398.5C 282.094,398.973 281.427,399.973 281.5,401.5C 280.094,401.973 279.427,402.973 279.5,404.5C 276.775,408.268 274.275,412.268 272,416.5C 271.107,417.711 270.274,417.711 269.5,416.5C 254.905,393.64 240.572,370.64 226.5,347.5C 227.995,347.415 228.995,348.081 229.5,349.5C 238.167,350.833 246.833,350.833 255.5,349.5C 254.873,348.583 254.539,347.583 254.5,346.5C 259.601,353.849 264.601,361.349 269.5,369C 270.449,369.617 271.282,369.451 272,368.5C 273.609,365.593 275.442,362.927 277.5,360.5C 278.906,360.027 279.573,359.027 279.5,357.5C 282.004,352.485 285.004,347.819 288.5,343.5 Z"/></g>
<g><path style="opacity:1" fill="#cbecb4" d="M 279.5,357.5 C 279.573,359.027 278.906,360.027 277.5,360.5C 277.427,358.973 278.094,357.973 279.5,357.5 Z"/></g>
<g><path style="opacity:1" fill="#d5f0c2" d="M 477.5,377.5 C 477.027,378.906 476.027,379.573 474.5,379.5C 474.973,378.094 475.973,377.427 477.5,377.5 Z"/></g>
<g><path style="opacity:1" fill="#ceedb8" d="M 312.5,379.5 C 312.573,381.027 311.906,382.027 310.5,382.5C 310.427,380.973 311.094,379.973 312.5,379.5 Z"/></g>
<g><path style="opacity:1" fill="#e2f4d5" d="M 474.5,379.5 C 473.514,381.408 471.848,382.408 469.5,382.5C 470.659,380.75 472.326,379.75 474.5,379.5 Z"/></g>
<g><path style="opacity:1" fill="#e2f5d5" d="M 469.5,382.5 C 467.898,384.074 465.898,384.741 463.5,384.5C 465.102,382.926 467.102,382.259 469.5,382.5 Z"/></g>
<g><path style="opacity:1" fill="#d5efc2" d="M 74.5,383.5 C 76.8984,383.259 78.8984,383.926 80.5,385.5C 78.1016,385.741 76.1016,385.074 74.5,383.5 Z"/></g>
<g><path style="opacity:1" fill="#d6f0c6" d="M 293.5,382.5 C 293.573,384.027 292.906,385.027 291.5,385.5C 291.427,383.973 292.094,382.973 293.5,382.5 Z"/></g>
<g><path style="opacity:1" fill="#d1eebd" d="M 463.5,384.5 C 460.727,385.657 457.727,386.324 454.5,386.5C 457.171,384.882 460.171,384.215 463.5,384.5 Z"/></g>
<g><path style="opacity:1" fill="#ceedb9" d="M 80.5,385.5 C 125.323,386.124 169.99,386.791 214.5,387.5C 171.165,387.667 127.832,387.5 84.5,387C 82.9419,386.79 81.6085,386.29 80.5,385.5 Z"/></g>
<g><path style="opacity:1" fill="#ceedb8" d="M 452.5,386.5 C 410.598,387.172 368.598,387.839 326.5,388.5C 368.153,386.505 410.153,385.839 452.5,386.5 Z"/></g>
<g><path style="opacity:1" fill="#ccecb7" d="M 307.5,387.5 C 307.573,389.027 306.906,390.027 305.5,390.5C 305.427,388.973 306.094,387.973 307.5,387.5 Z"/></g>
<g><path style="opacity:1" fill="#d7f1c8" d="M 288.5,390.5 C 288.573,392.027 287.906,393.027 286.5,393.5C 286.427,391.973 287.094,390.973 288.5,390.5 Z"/></g>
<g><path style="opacity:1" fill="#d0eebc" d="M 305.5,390.5 C 305.573,392.027 304.906,393.027 303.5,393.5C 303.427,391.973 304.094,390.973 305.5,390.5 Z"/></g>
<g><path style="opacity:1" fill="#d6f0c5" d="M 323.5,393.5 C 323.573,395.027 322.906,396.027 321.5,396.5C 321.427,394.973 322.094,393.973 323.5,393.5 Z"/></g>
<g><path style="opacity:1" fill="#caecb4" d="M 302.5,395.5 C 302.573,397.027 301.906,398.027 300.5,398.5C 300.427,396.973 301.094,395.973 302.5,395.5 Z"/></g>
<g><path style="opacity:1" fill="#d7f1c9" d="M 283.5,398.5 C 283.573,400.027 282.906,401.027 281.5,401.5C 281.427,399.973 282.094,398.973 283.5,398.5 Z"/></g>
<g><path style="opacity:1" fill="#ceedba" d="M 300.5,398.5 C 300.573,400.027 299.906,401.027 298.5,401.5C 298.427,399.973 299.094,398.973 300.5,398.5 Z"/></g>
<g><path style="opacity:1" fill="#d4efc4" d="M 281.5,401.5 C 281.573,403.027 280.906,404.027 279.5,404.5C 279.427,402.973 280.094,401.973 281.5,401.5 Z"/></g>
<g><path style="opacity:1" fill="#d7f1c7" d="M 318.5,401.5 C 318.573,403.027 317.906,404.027 316.5,404.5C 316.427,402.973 317.094,401.973 318.5,401.5 Z"/></g>
<g><path style="opacity:1" fill="#ccedb8" d="M 295.5,406.5 C 295.573,408.027 294.906,409.027 293.5,409.5C 293.427,407.973 294.094,406.973 295.5,406.5 Z"/></g>
<g><path style="opacity:1" fill="#e4f5d8" d="M 316.5,404.5 C 316.408,406.848 315.408,408.514 313.5,409.5C 313.75,407.326 314.75,405.659 316.5,404.5 Z"/></g>
<g><path style="opacity:1" fill="#d8f1c8" d="M 313.5,409.5 C 313.573,411.027 312.906,412.027 311.5,412.5C 311.427,410.973 312.094,409.973 313.5,409.5 Z"/></g>
<g><path style="opacity:1" fill="#a3de82" d="M 292.5,411.5 C 292.5,412.5 292.5,413.5 292.5,414.5C 297.927,414.218 303.26,414.551 308.5,415.5C 306.421,419.993 304.088,424.326 301.5,428.5C 300.094,428.973 299.427,429.973 299.5,431.5C 298.11,432.899 297.11,434.566 296.5,436.5C 295.094,436.973 294.427,437.973 294.5,439.5C 290.669,444.489 287.336,449.822 284.5,455.5C 283.094,455.973 282.427,456.973 282.5,458.5C 281.11,459.899 280.11,461.566 279.5,463.5C 278.094,463.973 277.427,464.973 277.5,466.5C 276.11,467.899 275.11,469.566 274.5,471.5C 273.094,471.973 272.427,472.973 272.5,474.5C 271.312,475.684 270.145,475.684 269,474.5C 256.822,454.805 244.656,435.139 232.5,415.5C 238.514,415.211 244.18,414.211 249.5,412.5C 256.392,422.598 263.058,432.932 269.5,443.5C 269.957,444.298 270.624,444.631 271.5,444.5C 272.906,444.027 273.573,443.027 273.5,441.5C 279.337,431.154 285.67,421.154 292.5,411.5 Z"/></g>
<g><path style="opacity:1" fill="#d5f0c5" d="M 301.5,428.5 C 301.573,430.027 300.906,431.027 299.5,431.5C 299.427,429.973 300.094,428.973 301.5,428.5 Z"/></g>
<g><path style="opacity:1" fill="#d6f1c7" d="M 296.5,436.5 C 296.573,438.027 295.906,439.027 294.5,439.5C 294.427,437.973 295.094,436.973 296.5,436.5 Z"/></g>
<g><path style="opacity:1" fill="#c9ecb6" d="M 273.5,441.5 C 273.573,443.027 272.906,444.027 271.5,444.5C 271.427,442.973 272.094,441.973 273.5,441.5 Z"/></g>
<g><path style="opacity:1" fill="#d4f0c5" d="M 284.5,455.5 C 284.573,457.027 283.906,458.027 282.5,458.5C 282.427,456.973 283.094,455.973 284.5,455.5 Z"/></g>
<g><path style="opacity:1" fill="#d5f0c6" d="M 279.5,463.5 C 279.573,465.027 278.906,466.027 277.5,466.5C 277.427,464.973 278.094,463.973 279.5,463.5 Z"/></g>
<g><path style="opacity:1" fill="#d6f1c9" d="M 274.5,471.5 C 274.573,473.027 273.906,474.027 272.5,474.5C 272.427,472.973 273.094,471.973 274.5,471.5 Z"/></g>
</svg>
